<svg width="1280" height="75" viewBox="0 0 1280 75" fill="none" xmlns="http://www.w3.org/2000/svg">
<mask id="path-1-inside-1_4_12" fill="white">
<path d="M323.747 0.17857C178.261 2.52591 47.2964 51.0376 0 75H1280C1172.75 47.3699 906.891 -3.92927 721.436 11.9153C489.617 31.7209 505.605 -2.7556 323.747 0.17857Z"/>
</mask>
<path d="M0 75L-61.465 -46.318L0 211V75ZM323.747 0.17857L325.941 136.161L323.747 0.17857ZM721.436 11.9153L733.014 147.422L721.436 11.9153ZM1280 75V211L1313.93 -56.6997L1280 75ZM61.465 196.318C94.2555 179.705 205.019 138.112 325.941 136.161L321.553 -135.804C151.502 -133.06 0.337279 -77.6297 -61.465 -46.318L61.465 196.318ZM325.941 136.161C405.672 134.874 437.132 141.288 487.51 147.388C545.511 154.41 608.889 158.026 733.013 147.422L709.859 -123.591C602.165 -114.39 557.627 -118.109 520.203 -122.64C475.155 -128.094 423.68 -137.451 321.553 -135.804L325.941 136.161ZM733.014 147.422C894.819 133.598 1142.43 180 1246.07 206.7L1313.93 -56.6997C1203.07 -85.2602 918.964 -141.456 709.859 -123.591L733.014 147.422ZM1280 -61H0V211H1280V-61Z" fill="#B3B6F2" mask="url(#path-1-inside-1_4_12)"/>
</svg>
