<svg width="384" height="211" viewBox="0 0 384 211" fill="none" xmlns="http://www.w3.org/2000/svg">
<g clip-path="url(#clip0_1_2)">
<rect width="384" height="211" fill="white"/>
<path d="M8.66883 204.034L3 34.851L31.3442 9.97115V180.149M8.66883 204.034L31.3442 180.149M8.66883 204.034L271.325 211L294 185.125M31.3442 180.149L294 185.125M31.3442 180.149V4H204.244M294 185.125V4H204.244M294 185.125L204.244 180.149V4" stroke="black"/>
<line x1="295" y1="102.5" x2="331" y2="102.5" stroke="black"/>
<line x1="337" y1="102.5" x2="373" y2="102.5" stroke="black"/>
<path d="M382 102L364.75 111.526L364.75 92.4737L382 102Z" fill="#D9D9D9"/>
<path d="M96.0014 58.1818V128H85.4332V68.75H85.0241L68.3196 79.6591V69.5682L85.7401 58.1818H96.0014ZM138.104 57.2273C141.217 57.25 144.286 57.8182 147.308 58.9318C150.331 60.0455 153.058 61.8636 155.49 64.3864C157.945 66.9091 159.899 70.3182 161.354 74.6136C162.831 78.8864 163.581 84.2045 163.604 90.5682C163.604 96.6818 162.99 102.125 161.763 106.898C160.536 111.648 158.774 115.659 156.479 118.932C154.206 122.205 151.445 124.693 148.195 126.398C144.945 128.102 141.286 128.955 137.217 128.955C133.058 128.955 129.365 128.136 126.138 126.5C122.911 124.864 120.286 122.602 118.263 119.716C116.24 116.807 114.979 113.466 114.479 109.693H124.876C125.558 112.693 126.945 115.125 129.036 116.989C131.149 118.83 133.876 119.75 137.217 119.75C142.331 119.75 146.32 117.523 149.183 113.068C152.047 108.591 153.49 102.341 153.513 94.3182H152.967C151.786 96.2727 150.308 97.9545 148.536 99.3636C146.786 100.773 144.82 101.864 142.638 102.636C140.456 103.409 138.126 103.795 135.649 103.795C131.626 103.795 127.967 102.807 124.672 100.83C121.376 98.8523 118.751 96.1364 116.797 92.6818C114.842 89.2273 113.865 85.2841 113.865 80.8523C113.865 76.4432 114.865 72.4432 116.865 68.8523C118.888 65.2614 121.706 62.4205 125.32 60.3295C128.956 58.2159 133.217 57.1818 138.104 57.2273ZM138.138 66.0909C135.479 66.0909 133.081 66.75 130.945 68.0682C128.831 69.3636 127.161 71.125 125.933 73.3523C124.706 75.5568 124.092 78.0114 124.092 80.7159C124.092 83.4205 124.683 85.875 125.865 88.0795C127.07 90.2614 128.706 92 130.774 93.2955C132.865 94.5682 135.251 95.2045 137.933 95.2045C139.933 95.2045 141.797 94.8182 143.524 94.0455C145.251 93.2727 146.763 92.2045 148.058 90.8409C149.354 89.4545 150.365 87.8864 151.092 86.1364C151.82 84.3864 152.183 82.5455 152.183 80.6136C152.183 78.0455 151.57 75.6591 150.342 73.4545C149.138 71.25 147.479 69.4773 145.365 68.1364C143.251 66.7727 140.842 66.0909 138.138 66.0909Z" fill="black"/>
<g filter="url(#filter0_d_1_2)">
<rect x="206" y="6" width="85" height="175" fill="#D9D9D9"/>
</g>
</g>
<defs>
<filter id="filter0_d_1_2" x="206" y="6" width="109" height="183" filterUnits="userSpaceOnUse" color-interpolation-filters="sRGB">
<feFlood flood-opacity="0" result="BackgroundImageFix"/>
<feColorMatrix in="SourceAlpha" type="matrix" values="0 0 0 0 0 0 0 0 0 0 0 0 0 0 0 0 0 0 127 0" result="hardAlpha"/>
<feOffset dx="20" dy="4"/>
<feGaussianBlur stdDeviation="2"/>
<feComposite in2="hardAlpha" operator="out"/>
<feColorMatrix type="matrix" values="0 0 0 0 0 0 0 0 0 0 0 0 0 0 0 0 0 0 0.59 0"/>
<feBlend mode="normal" in2="BackgroundImageFix" result="effect1_dropShadow_1_2"/>
<feBlend mode="normal" in="SourceGraphic" in2="effect1_dropShadow_1_2" result="shape"/>
</filter>
<clipPath id="clip0_1_2">
<rect width="384" height="211" fill="white"/>
</clipPath>
</defs>
</svg>
